<?xml version="1.0" encoding="UTF-8" standalone="no"?>
<svg
   width="20mm"
   height="19mm"
   viewBox="0 0 20 19"
   version="1.1"
   id="svg1113"
   sodipodi:docname="settingIcon.svg"
   inkscape:version="1.2 (dc2aeda, 2022-05-15)"
   xmlns:inkscape="http://www.inkscape.org/namespaces/inkscape"
   xmlns:sodipodi="http://sodipodi.sourceforge.net/DTD/sodipodi-0.dtd"
   xmlns="http://www.w3.org/2000/svg"
   xmlns:svg="http://www.w3.org/2000/svg">
  <defs
     id="defs1117" />
  <sodipodi:namedview
     id="namedview1115"
     pagecolor="#ffffff"
     bordercolor="#000000"
     borderopacity="0.25"
     inkscape:showpageshadow="2"
     inkscape:pageopacity="0.0"
     inkscape:pagecheckerboard="0"
     inkscape:deskcolor="#d1d1d1"
     inkscape:document-units="mm"
     showgrid="false"
     inkscape:zoom="11.237829"
     inkscape:cx="37.863185"
     inkscape:cy="35.994497"
     inkscape:window-width="1920"
     inkscape:window-height="1016"
     inkscape:window-x="0"
     inkscape:window-y="0"
     inkscape:window-maximized="1"
     inkscape:current-layer="svg1113" />
  <ellipse
     cx="9.884"
     cy="9.542"
     rx="6.416"
     ry="6.332"
     fill="#999"
     fill-opacity=".033"
     stroke="gray"
     stroke-width="1.886"
     stroke-linecap="round"
     stroke-linejoin="round"
     id="ellipse1107"
     style="fill:#ffffff;fill-opacity:0;stroke:#e0e0e0;stroke-opacity:1" />
  <ellipse
     cx="9.923"
     cy="9.557"
     rx="3.61"
     ry="3.728"
     fill="#999"
     fill-opacity=".033"
     stroke="gray"
     stroke-width="1.085"
     stroke-linecap="round"
     stroke-linejoin="round"
     id="ellipse1109"
     style="stroke:#e0e0e0;stroke-opacity:1;fill:#999999;fill-opacity:0" />
  <path
     fill="gray"
     d="M8.914 16.555h1.965v1.436H8.914zM8.927 1.344h1.965V2.78H8.927zM18.543 8.245l.011 1.965-1.436.008-.01-1.965zM2.753 8.254l.01 1.965-1.435.008-.011-1.965zM4.535 4.841l-1.03 1.674-1.223-.753 1.03-1.673zM7.421 2.878l-1.741.91-.665-1.273 1.741-.91zM15.242 16.358l-1.741.91-.665-1.272 1.741-.91zM18.178 12.18l-1.03 1.674-1.223-.752 1.03-1.674zM6.232 17.402L4.61 16.294l.81-1.186 1.623 1.108zM2.904 14.455L1.845 12.8l1.21-.774 1.059 1.655zM16.648 6.696l-1.06-1.655 1.21-.774 1.06 1.656zM14.456 4.032l-1.623-1.108.81-1.186 1.622 1.108z"
     id="path1111"
     style="fill:#e0e0e0;fill-opacity:1" />
</svg>
