<?xml version="1.0" encoding="UTF-8" standalone="no"?>
<svg
   width="20mm"
   height="19mm"
   viewBox="0 0 20 19"
   version="1.1"
   id="svg1910"
   sodipodi:docname="itemAddIcon.svg"
   inkscape:version="1.2 (dc2aeda, 2022-05-15)"
   xmlns:inkscape="http://www.inkscape.org/namespaces/inkscape"
   xmlns:sodipodi="http://sodipodi.sourceforge.net/DTD/sodipodi-0.dtd"
   xmlns="http://www.w3.org/2000/svg"
   xmlns:svg="http://www.w3.org/2000/svg">
  <defs
     id="defs1914" />
  <sodipodi:namedview
     id="namedview1912"
     pagecolor="#ffffff"
     bordercolor="#000000"
     borderopacity="0.25"
     inkscape:showpageshadow="2"
     inkscape:pageopacity="0.0"
     inkscape:pagecheckerboard="0"
     inkscape:deskcolor="#d1d1d1"
     inkscape:document-units="mm"
     showgrid="false"
     inkscape:zoom="11.237829"
     inkscape:cx="37.863185"
     inkscape:cy="35.994497"
     inkscape:window-width="1920"
     inkscape:window-height="1016"
     inkscape:window-x="0"
     inkscape:window-y="0"
     inkscape:window-maximized="1"
     inkscape:current-layer="svg1910" />
  <path
     fill="none"
     stroke="gray"
     stroke-width=".709"
     stroke-linecap="round"
     stroke-linejoin="round"
     d="M2.434 2.781H8.15v1.908H2.434z"
     id="path1900"
     style="stroke:#e0e0e0;stroke-opacity:1" />
  <g
     fill="gray"
     stroke="gray"
     stroke-width="1.119"
     stroke-linecap="round"
     stroke-linejoin="round"
     id="g1906"
     style="fill:#e0e0e0;fill-opacity:1;stroke:#e0e0e0;stroke-opacity:1">
    <path
       d="M12.855 6.189h2.86v9.49h-2.86z"
       transform="matrix(.75229 0 0 .83256 3.833 1.472)"
       id="path1902"
       style="fill:#e0e0e0;fill-opacity:1;stroke:#e0e0e0;stroke-opacity:1" />
    <path
       transform="matrix(.00029 -.83256 .75229 .00032 3.833 1.472)"
       d="M-12.331 9.533h2.86v9.49h-2.86z"
       id="path1904"
       style="fill:#e0e0e0;fill-opacity:1;stroke:#e0e0e0;stroke-opacity:1" />
  </g>
  <path
     d="M8.54 10.465c0 3.294-.042 4.164-.006 5.994.004.194-1.74.118-3.444.112-1.598-.005-3.185.188-3.178-.345.014-1.188.013-3.985.004-5.76C1.9 7.171 3.434 4.853 5.263 4.853S8.54 7.172 8.54 10.465z"
     fill="none"
     stroke="gray"
     stroke-width="1.028"
     stroke-linecap="square"
     stroke-miterlimit="4.8"
     id="path1908"
     style="stroke:#e0e0e0;stroke-opacity:1" />
</svg>
